<svg display="none" xmlns="http://www.w3.org/2000/svg" xmlns:xlink="http://www.w3.org/1999/xlink">
    <symbol viewBox="0 0 18 18" id="video-game">
		<path d="M11.019 6.641a3.74 3.74 0 013.503-4.522l.002-.003H3.458l.002.004a3.74 3.74 0 013.503 4.52A1.916 1.916 0 018.52 8.52l-.001.07h.944l-.002-.07c0-.934.672-1.713 1.558-1.88zM8.116 4.227h1.75v1.06h-1.75v-1.06zM4.844 9.26A3.739 3.739 0 010 7.58v5.966a2.34 2.34 0 002.337 2.338c.886 0 1.71-.514 2.1-1.31l2.032-4.147A1.916 1.916 0 014.844 9.26zm9.827.327a3.713 3.713 0 01-1.533-.328 1.916 1.916 0 01-1.607 1.167l2.033 4.149a2.353 2.353 0 002.099 1.309A2.34 2.34 0 0018 13.546V7.545a3.74 3.74 0 01-3.329 2.042z"></path>
		<path d="M4.74 8.113a1.92 1.92 0 011.08-1.335 2.678 2.678 0 00-2.51-3.6A2.678 2.678 0 00.637 5.851a2.678 2.678 0 004.102 2.261zM1.883 5.321h.897v-.897h1.06v.897h.898v1.061h-.897v.897H2.78v-.897h-.897v-1.06zm11.36 2.792a2.678 2.678 0 004.103-2.262c0-1.474-1.2-2.674-2.675-2.674a2.678 2.678 0 00-2.51 3.6c.543.247.952.74 1.082 1.336zm2.651-2.657a.54.54 0 01.53.53c.014.287-.252.53-.53.53a.54.54 0 01-.53-.53c-.013-.286.253-.53.53-.53zm-1.337-1.293a.54.54 0 01.53.53c.013.287-.253.531-.53.531a.54.54 0 01-.53-.53c-.013-.287.252-.53.53-.53zm0 2.598a.54.54 0 01.53.53c.013.287-.253.531-.53.531a.54.54 0 01-.53-.53c-.013-.287.252-.53.53-.53zm-1.338-.244a.54.54 0 01-.53-.53c-.013-.287.253-.531.53-.531a.54.54 0 01.53.53c.014.287-.252.53-.53.53zM6.608 7.668a.853.853 0 000 1.704.853.853 0 000-1.704zm4.766 1.704a.853.853 0 000-1.704.853.853 0 000 1.704z"></path>
	</symbol>
	<symbol viewBox="0 0 18 18" id="raphael_jigsaw">
		<path d="M.06 7.155s2.643-3.474 4.203-2.71c1.563.764-.31 2.079 1.203 2.767 1.512.686 3.795-.171 3.29-2.157-.505-1.986-1.403-.577-2.104-1.642C5.95 2.347 10.101 0 10.101 0s2.526 4.946 3.245 3.652c.87-1.566 2.4-3.172 3.989-.763 0 0 1.364 1.794.185 2.554-1.18.76-2.194.329-2.637 1.155-.44.827 2.846 3.044 2.846 3.044s-2.246 3.577-3.704 2.638c-1.46-.938.267-2.502-1.956-2.967-.967-.171-2.584.401-2.87 1.74-.098 2.016 1.206 1.5 2.103 2.585C12.197 14.721 7.93 17 7.93 17s-1.19-2.917-2.865-3.463c-1.675-.546-.672 1.588-2.194 1.882-1.522.295-3.622-1.784-2.602-3.561 1.021-1.778 2.463-.033 2.587-1.45C2.984 8.988.059 7.152.059 7.152v.003z"></path>
	</symbol>
	<symbol viewBox="0 0 18 12" id="bx_bxs-news">
		<g clip-path="url(#clip0)">
		  <path d="M15.858 10c0 .212-.09.415-.251.566A.889.889 0 0115 10.8a.89.89 0 01-.606-.235.774.774 0 01-.252-.565V.4a.774.774 0 00-.25-.566.889.889 0 00-.607-.234h-12a.89.89 0 00-.606.234A.774.774 0 00.43.4v10.4c0 .424.18.831.501 1.131.322.3.758.469 1.212.469h12.858c1.417 0 2.571-1.077 2.571-2.4V2h-1.714v8zM9 2h2.571v1.6h-2.57V2zm0 3.2h2.571v1.6h-2.57V5.2zM3 2h4.285v4.8H3.001V2zm0 8V8.4h8.571V10h-8.57z"></path>
		</g>
		<defs>
		  <clipPath id="clip0">
			<path fill="#fff" d="M0 0h18v12H0z"></path>
		  </clipPath>
		</defs>
	</symbol>
	<symbol viewBox="0 0 18 18" id="credit-card 1">
		<path d="M14.4 2.566H1.045C.462 2.566 0 3.056 0 3.634v8.214a1.035 1.035 0 001.044 1.021h.541V6.17a1.98 1.98 0 011.99-1.972h11.86v-.564c0-.578-.451-1.068-1.034-1.068zm1.455 9.651a.747.747 0 00-1.053.093.467.467 0 01-.727 0 .748.748 0 00-1.33.48c0 .415.341.751.756.751a.73.73 0 00.578-.27.463.463 0 01.359-.168.45.45 0 01.359.163c.033.037.06.07.098.098a.747.747 0 10.96-1.147z"></path>
		<path d="M16.937 5.13H3.575a1.048 1.048 0 00-1.058 1.04v.686H18V6.17c0-.582-.48-1.04-1.063-1.04zm1.058 2.658H2.517V9h15.478V7.788zM2.517 9.932v4.434c0 .587.471 1.063 1.058 1.068h13.357a1.072 1.072 0 001.063-1.068V9.932H2.517zm14.261 3.795a1.687 1.687 0 01-2.34.453c-.28.19-.606.289-.942.289a1.686 1.686 0 010-3.371c.336 0 .662.098.942.289a1.687 1.687 0 012.34 2.34z"></path>
  </symbol>
  <symbol viewBox="0 0 18 18" id="mdi_frequently-asked-questions">
    <path d="M13.201 10.853h-9.6l-3.2 3.177V1.324c0-.21.085-.413.235-.562A.803.803 0 011.2.53h12a.793.793 0 01.8.794v8.735c0 .21-.084.413-.234.562a.803.803 0 01-.566.232zm4-4.765v11.118l-3.2-3.176h-8.8a.803.803 0 01-.565-.233.791.791 0 01-.235-.562v-.794h11.2V5.294h.8c.212 0 .416.084.566.233a.79.79 0 01.234.561zM5.353 2.118c-.696 0-1.256.159-1.688.468-.416.326-.624.779-.616 1.406l.008.024h1.544c.008-.239.08-.421.224-.548a.804.804 0 01.528-.183c.248 0 .456.08.6.222.144.151.208.358.208.596 0 .254-.056.469-.184.651a1.45 1.45 0 01-.488.469c-.408.27-.688.508-.84.722-.16.207-.248.54-.248.937h1.6c0-.246.032-.444.104-.587.072-.143.208-.286.408-.413.36-.19.656-.421.888-.739.232-.317.352-.643.352-1.04 0-.603-.216-1.088-.648-1.445-.424-.358-1.008-.54-1.752-.54zm-.952 5.559v1.588h1.6V7.677h-1.6zm4.8 1.588h1.6V7.677h-1.6v1.588zm0-7.147v4.764h1.6V2.118h-1.6z"></path>
  </symbol>
  <symbol viewBox="0 0 18 18" id="user">
    <path d="M16 0H2C1.47 0 .96.223.586.62A2.183 2.183 0 000 2.118v13.764c0 .562.21 1.1.586 1.498.375.397.884.62 1.414.62h14c.53 0 1.04-.223 1.414-.62.375-.397.586-.936.586-1.498V2.118c0-.562-.21-1.1-.586-1.498A1.945 1.945 0 0016 0zM9 3.176c1.727 0 3 1.347 3 3.177s-1.273 3.176-3 3.176c-1.726 0-3-1.346-3-3.176s1.274-3.177 3-3.177zM4.177 14.823C4.735 13 6.673 11.647 9 11.647c2.327 0 4.266 1.352 4.823 3.176H4.177z"></path>
  </symbol>
  <symbol viewBox="0 0 18 18" id="settings-gears 1">
    <g clip-path="url(#clip0)">
      <path d="M1.994 11.065c.16.547.381 1.075.661 1.57l-.798 1.007a.826.826 0 00.062 1.094l1.375 1.375a.823.823 0 001.094.062l1-.792a7.267 7.267 0 001.633.69l.15 1.288c.049.417.4.73.817.73h1.945a.824.824 0 00.818-.73l.144-1.242a7.349 7.349 0 001.749-.706l.968.765a.826.826 0 001.094-.062l1.375-1.375a.823.823 0 00.062-1.094l-.753-.955a7.18 7.18 0 00.72-1.72l1.16-.134c.417-.048.73-.4.73-.817V8.074a.824.824 0 00-.73-.818l-1.143-.134a7.226 7.226 0 00-.691-1.7l.704-.89a.826.826 0 00-.062-1.094l-1.372-1.372a.823.823 0 00-1.094-.062l-.864.684a7.238 7.238 0 00-1.788-.749L10.83.822a.824.824 0 00-.818-.73H8.067a.824.824 0 00-.818.73l-.13 1.117a7.22 7.22 0 00-1.835.775l-.896-.71a.826.826 0 00-1.094.062L1.919 3.441a.823.823 0 00-.062 1.095l.75.948c-.3.54-.528 1.117-.678 1.717l-1.2.136A.824.824 0 000 8.155V10.1c0 .417.313.769.73.818l1.264.147zM9.04 5.803a3.22 3.22 0 013.215 3.216 3.22 3.22 0 01-3.215 3.215A3.22 3.22 0 015.825 9.02a3.22 3.22 0 013.216-3.216z"></path>
    </g>
    <defs>
      <clipPath id="clip0">
        <path d="M0 0h18v18H0z"></path>
      </clipPath>
    </defs>
  </symbol>
  <symbol id="uil_exit">
    <path d="M4 12a1 1 0 001 1h7.59l-2.3 2.29a1.002 1.002 0 00.325 1.639 1 1 0 001.095-.219l4-4a1 1 0 00.21-.33 1 1 0 000-.76 1 1 0 00-.21-.33l-4-4a1.003 1.003 0 10-1.42 1.42l2.3 2.29H5a1 1 0 00-1 1zM17 2H7a3 3 0 00-3 3v3a1 1 0 002 0V5a1 1 0 011-1h10a1 1 0 011 1v14a1 1 0 01-1 1H7a1 1 0 01-1-1v-3a1 1 0 10-2 0v3a3 3 0 003 3h10a3 3 0 003-3V5a3 3 0 00-3-3z"></path>
  </symbol>
  <symbol viewBox="0 0 12 12" id="plus">
    <path fill-rule="evenodd" clip-rule="evenodd" d="M6.5 0h-1v5.5H0v1h5.5V12h1V6.5H12v-1H6.5V0z" fill="#6C63FF"></path>
  </symbol>
  <symbol viewBox="0 0 44 44" id="close">
    <path d="M10.421 32.421l22-22 1.159 1.158-22 22z"></path>
    <path d="M32.42 33.579l-22-22 1.159-1.159 22 22z"></path>
  </symbol>
  <symbol viewBox="0 0 27 25" id="bi-check">
    <path fill-rule="evenodd" clip-rule="evenodd" d="M19.086 6.476a1.61 1.61 0 011.075-.406c.403-.001.79.143 1.078.4.288.258.453.61.46.977.007.368-.145.724-.423.99l-8.163 9.325c-.14.138-.31.248-.498.325a1.657 1.657 0 01-1.2.02 1.552 1.552 0 01-.51-.308l-5.41-4.944a1.412 1.412 0 01-.355-.455 1.3 1.3 0 01-.021-1.095c.077-.175.192-.333.338-.466.145-.133.319-.238.51-.309a1.662 1.662 0 011.198.02c.188.076.358.187.498.324l4.282 3.911 7.102-8.268a.444.444 0 01.04-.041h-.001z"></path>
  </symbol>
  <symbol viewBox="0 0 27 25" id="delete-forever">
    <path d="M6.677 19.221c0 1.113 1.001 2.023 2.225 2.023h8.903c1.224 0 2.225-.91 2.225-2.023V9.105c0-1.113-1.001-2.024-2.225-2.024H8.902c-1.224 0-2.225.91-2.225 2.024V19.22zm3.527-7.921a1.12 1.12 0 01.36-.219 1.204 1.204 0 01.85 0c.134.05.256.125.36.219l1.58 1.436 1.58-1.436c.103-.094.225-.168.36-.219a1.206 1.206 0 01.849 0c.134.051.257.125.36.219.103.094.184.205.24.327a.93.93 0 010 .772 1.01 1.01 0 01-.24.327l-1.58 1.437 1.58 1.436c.103.094.184.205.24.328a.93.93 0 010 .771 1.008 1.008 0 01-.24.328 1.122 1.122 0 01-.36.218 1.206 1.206 0 01-.85 0 1.122 1.122 0 01-.36-.218l-1.58-1.437-1.58 1.437a1.122 1.122 0 01-.36.218 1.206 1.206 0 01-.849 0 1.122 1.122 0 01-.36-.218 1.008 1.008 0 01-.24-.328.93.93 0 010-.771 1.01 1.01 0 01.24-.328l1.58-1.436-1.58-1.437a1.006 1.006 0 01-.24-.327.929.929 0 010-.772.992.992 0 01.24-.327zm7.044-7.253l-.79-.719c-.2-.182-.49-.293-.779-.293h-4.651c-.29 0-.579.111-.78.293l-.79.719h-2.78c-.612 0-1.113.455-1.113 1.011 0 .557.5 1.012 1.113 1.012H20.03c.612 0 1.113-.455 1.113-1.012 0-.556-.5-1.011-1.113-1.011h-2.782z"></path>
  </symbol>
    <symbol viewBox="0 0 18 15" id="check">
        <path fill-rule="evenodd" clip-rule="evenodd" d="M14.957.9a1.605 1.605 0 012.265-.006 1.64 1.64 0 01.039 2.291L8.672 14.042a1.613 1.613 0 01-1.152.522 1.597 1.597 0 01-1.171-.478L.659 8.33a1.632 1.632 0 01-.514-1.165A1.648 1.648 0 01.617 5.98a1.613 1.613 0 011.17-.478 1.598 1.598 0 011.152.52l4.505 4.553L14.916.95a.51.51 0 01.043-.05h-.002z" fill="#6FCF97"></path>
    </symbol>
    <symbol viewBox="0 0 16 16" id="plus-user">
        <path fill="#6C63FF" d="M7.107.865h1.784v14.27H7.107z"></path>
        <path fill="#6C63FF" d="M.864 8.892V7.108h14.27v1.784z"></path>
    </symbol>
    <symbol viewBox="0 0 2 336" id="vertical-line">
      <path d="M1 0v336" stroke="#F4F9FF" stroke-width="2"></path>
  </symbol>
  <symbol viewBox="0 0 18 15" id="check-game-start">
    <path fill-rule="evenodd" clip-rule="evenodd" d="M15.105.61A1.604 1.604 0 0117.37.603a1.64 1.64 0 01.039 2.291L8.82 13.751a1.613 1.613 0 01-1.152.522 1.597 1.597 0 01-1.171-.478L.807 8.038a1.632 1.632 0 01-.514-1.165A1.648 1.648 0 01.765 5.69a1.612 1.612 0 011.17-.478 1.599 1.599 0 011.152.52l4.505 4.554L15.064.658a.51.51 0 01.043-.048h-.002z" fill="#fff"></path>
  </symbol>
  <symbol viewBox="0 0 20 19" id="arrow-to-down">
    <path d="M18.33 8.665L9.666 17.33 1 8.665" stroke="#6C63FF" stroke-width="2" stroke-linecap="round"></path>
  </symbol>
  <symbol viewBox="0 0 16 16" id="href">
    <path d="M10.667.667h-8c-.733 0-1.333.6-1.333 1.333v9.333h1.333V2h8V.667zm2 2.666H5.334C4.6 3.333 4 3.933 4 4.666V14c0 .733.6 1.333 1.333 1.333h7.334c.733 0 1.333-.6 1.333-1.333V4.666c0-.733-.6-1.333-1.333-1.333zm0 10.667H5.334V4.666h7.333V14z" fill="#8B97A8"></path>
  </symbol>
  <symbol fill="none" xmlns="http://www.w3.org/2000/svg" viewBox="0 0 16 16" id="Group 352">
    <circle cx="8" cy="8" r="8" fill="#E2EEFF"></circle>
    <path d="M7.256 9.598c.008-.465.06-.832.158-1.102.098-.27.297-.568.598-.896l.767-.791c.328-.372.492-.77.492-1.196 0-.41-.107-.73-.322-.96-.215-.235-.527-.352-.937-.352-.399 0-.719.105-.961.316-.242.211-.364.494-.364.85H5.604c.007-.633.232-1.143.673-1.53.446-.39 1.024-.585 1.735-.585.738 0 1.312.199 1.722.597.414.395.621.938.621 1.63 0 .683-.316 1.357-.949 2.02l-.638.633c-.286.317-.428.772-.428 1.366H7.256zm-.047 1.857c0-.176.053-.322.158-.44.11-.12.27-.181.48-.181.212 0 .372.06.481.182a.62.62 0 01.164.44.619.619 0 01-.164.439c-.11.113-.27.17-.48.17-.211 0-.371-.057-.48-.17a.632.632 0 01-.159-.44z" fill="#6C63FF"></path>
  </symbol>
  <symbol fill="none" xmlns="http://www.w3.org/2000/svg" viewBox="0 0 110 110" id="настройки">
    <circle cx="55" cy="55" r="55" fill="#F4F9FF"></circle>
    <g clip-path="url(#clip0)" fill="#6C63FF">
      <path d="M23.727 47.38a17.523 17.523 0 001.568 3.723l-1.892 2.386a1.959 1.959 0 00.146 2.595l3.26 3.26a1.95 1.95 0 002.595.147l2.371-1.877a17.227 17.227 0 003.87 1.637L36 62.302c.116.989.95 1.73 1.939 1.73h4.611c.989 0 1.823-.741 1.939-1.73l.34-2.943a17.425 17.425 0 004.147-1.676l2.294 1.815a1.96 1.96 0 002.596-.146l3.259-3.26a1.95 1.95 0 00.147-2.595l-1.784-2.263a17.017 17.017 0 001.706-4.078l2.75-.317a1.954 1.954 0 001.73-1.939v-4.61c0-.99-.741-1.824-1.73-1.94l-2.71-.316a17.136 17.136 0 00-1.638-4.032l1.668-2.109a1.959 1.959 0 00-.147-2.595l-3.251-3.252a1.95 1.95 0 00-2.596-.146l-2.046 1.622a17.191 17.191 0 00-4.24-1.777l-.31-2.65a1.954 1.954 0 00-1.938-1.73h-4.611c-.99 0-1.823.742-1.94 1.73l-.308 2.65a17.12 17.12 0 00-4.349 1.838L29.404 25.9a1.959 1.959 0 00-2.595.146l-3.26 3.26a1.95 1.95 0 00-.146 2.595l1.776 2.248a16.8 16.8 0 00-1.606 4.07l-2.843.325c-.988.115-1.73.95-1.73 1.938v4.611c0 .989.742 1.823 1.73 1.939l2.997.348zm16.707-12.474c4.202 0 7.623 3.421 7.623 7.623s-3.421 7.623-7.623 7.623-7.624-3.421-7.624-7.623 3.422-7.623 7.624-7.623z"></path>
      <path d="M86.02 48.515l-2.433-2.054a1.924 1.924 0 00-2.564.069l-1.344 1.259a13.89 13.89 0 00-3.584-1.159l-.379-1.853a1.942 1.942 0 00-2.054-1.545l-3.175.27a1.934 1.934 0 00-1.768 1.862l-.062 1.884a13.93 13.93 0 00-3.422 1.8l-1.606-1.066a1.93 1.93 0 00-2.541.363l-2.055 2.449a1.925 1.925 0 00.07 2.564l1.405 1.498a14.398 14.398 0 00-1.035 3.43l-2.008.409a1.942 1.942 0 00-1.545 2.055l.27 3.174a1.936 1.936 0 001.862 1.769l2.17.07a14.182 14.182 0 001.537 2.934l-1.212 1.83a1.93 1.93 0 00.363 2.542l2.433 2.055c.75.633 1.853.602 2.564-.07l1.591-1.49c1.043.486 2.14.849 3.267 1.065l.44 2.178a1.942 1.942 0 002.055 1.545l3.175-.27a1.934 1.934 0 001.769-1.862l.069-2.132a14.279 14.279 0 003.267-1.652l1.753 1.158a1.93 1.93 0 002.542-.363l2.054-2.433a1.925 1.925 0 00-.07-2.564l-1.413-1.498a13.912 13.912 0 001.112-3.445l1.931-.394a1.942 1.942 0 001.545-2.055l-.27-3.174a1.934 1.934 0 00-1.862-1.77l-1.938-.06a14.025 14.025 0 00-1.615-3.183l1.059-1.591a1.92 1.92 0 00-.348-2.549zM74.056 66.867a6.24 6.24 0 01-1.05-12.436 6.24 6.24 0 011.05 12.436zM34.834 75.41a1.93 1.93 0 00-1.73 1.9l-.023 1.954c-.016.98.71 1.815 1.684 1.938l1.436.186c.24.873.58 1.707 1.02 2.495l-.927 1.143a1.926 1.926 0 00.116 2.564l1.367 1.398c.687.703 1.784.78 2.564.178l1.151-.888c.811.478 1.668.857 2.564 1.12l.155 1.482c.1.974.919 1.723 1.9 1.73l1.954.024c.98.015 1.815-.71 1.939-1.684l.177-1.406c.974-.24 1.9-.602 2.781-1.081l1.081.873a1.926 1.926 0 002.565-.116l1.398-1.367c.703-.688.78-1.785.177-2.565l-.826-1.073a11.2 11.2 0 001.174-2.704l1.282-.131a1.93 1.93 0 001.73-1.9l.023-1.954a1.925 1.925 0 00-1.683-1.939l-1.252-.162a11.64 11.64 0 00-1.058-2.703l.78-.958a1.926 1.926 0 00-.116-2.565l-1.367-1.398a1.928 1.928 0 00-2.564-.177l-.935.718a11.36 11.36 0 00-2.811-1.22l-.124-1.213a1.93 1.93 0 00-1.9-1.73l-1.954-.023a1.925 1.925 0 00-1.939 1.684l-.154 1.205c-1.02.262-2 .664-2.912 1.189l-.965-.788a1.926 1.926 0 00-2.565.116l-1.406 1.375a1.928 1.928 0 00-.177 2.564l.826 1.066c-.479.85-.857 1.753-1.104 2.703l-1.352.14zm12.613-2.21c2.804.031 5.051 2.34 5.02 5.144-.03 2.804-2.34 5.052-5.143 5.021-2.804-.03-5.052-2.34-5.021-5.144.031-2.804 2.34-5.051 5.144-5.02z"></path>
    </g>
    <defs>
      <clipPath id="clip0">
        <path fill="#fff" transform="translate(19 21)" d="M0 0h72v72H0z"></path>
      </clipPath>
    </defs>
  </symbol>
  <symbol fill="none" xmlns="http://www.w3.org/2000/svg" viewBox="0 0 110 110" id="оплата">
    <circle cx="55" cy="55" r="55" fill="#F4F9FF"></circle>
    <g clip-path="url(#clip0)" fill="#6C63FF">
      <path d="M74.604 31.266H21.177c-2.33 0-4.177 1.958-4.177 4.27v32.858c.019 2.275 1.902 4.102 4.177 4.084h2.163V45.68c0-4.383 3.58-7.889 7.963-7.889h47.44v-2.256c0-2.312-1.808-4.27-4.14-4.27zm5.818 38.601a2.989 2.989 0 00-4.214.373 1.868 1.868 0 01-2.91 0 2.992 2.992 0 00-2.312-1.1 2.981 2.981 0 00-3.002 3.02c0 1.66 1.361 3.003 3.02 3.003a2.918 2.918 0 002.313-1.081 1.85 1.85 0 011.436-.672 1.802 1.802 0 011.436.653c.13.15.242.28.392.392a2.989 2.989 0 004.214-.373 2.989 2.989 0 00-.373-4.215z"></path>
      <path d="M84.748 41.522H31.302a4.19 4.19 0 00-4.232 4.159v2.74H89v-2.74c0-2.331-1.92-4.159-4.252-4.159zm4.233 10.629H27.07V57h61.91v-4.85zM27.07 60.73v17.734a4.262 4.262 0 004.233 4.27H84.73a4.29 4.29 0 004.251-4.27V60.73H27.07zm57.044 15.179c-2.088 3.077-6.284 3.897-9.361 1.809a6.646 6.646 0 01-3.767 1.156c-3.73 0-6.732-3.04-6.732-6.75a6.729 6.729 0 016.732-6.733c1.343 0 2.648.392 3.767 1.157a6.722 6.722 0 017.552 0c3.077 2.088 3.898 6.284 1.81 9.361z"></path>
    </g>
    <defs>
      <clipPath id="clip0">
        <path fill="#fff" transform="translate(17 21)" d="M0 0h72v72H0z"></path>
      </clipPath>
    </defs>
  </symbol>
  <symbol viewBox="0 0 110 110" id="таблица">
    <circle cx="55" cy="55" r="55" fill="#F4F9FF"></circle>
    <path d="M83.182 31.925H26.818A2.818 2.818 0 0024 34.743v45.091a2.818 2.818 0 002.818 2.818h56.364A2.818 2.818 0 0086 79.834V34.743a2.818 2.818 0 00-2.818-2.818zM48.424 65.743v-5.637h13.152v5.637H48.424zm13.152 5.636v5.636H48.424V71.38h13.152zm0-22.545v5.636H48.424v-5.636h13.152zm5.636 0h13.152v5.636H67.212v-5.636zm-24.424 0v5.636H29.636v-5.636h13.152zM29.636 60.106h13.152v5.637H29.636v-5.637zm37.576 0h13.152v5.637H67.212v-5.637zM29.636 71.38h13.152v5.636H29.636V71.38zm37.576 5.636V71.38h13.152v5.636H67.212z" fill="#6C63FF"></path>
  </symbol>
  <symbol viewBox="0 0 110 110" id="публикация">
    <circle cx="55" cy="55" r="55" fill="#F4F9FF"></circle>
    <path fill-rule="evenodd" clip-rule="evenodd" d="M39.365 31.63v44.632l3.79-.002 3.914 7.466h-7.101c-2.183 0-3.968-1.814-3.968-4.03V28.034C36 25.816 37.785 24 39.968 24h26.175c2.183 0 3.966 1.816 3.966 4.034V65.81h-3.363V31.63H39.365zm17.878-4.721h-8.375c-.263 0-.314.51-.314.783 0 .27.05.808.314.808h8.375c.265 0 .386-.539.386-.808 0-.272-.121-.783-.386-.783z" fill="#6C63FF"></path>
    <path d="M72 70.769v.498h-.002v3.757a.03.03 0 01-.002.01.03.03 0 00-.002.01v12.381s0 8.577-9.45 8.575c-5.892.002-8.386-2.8-9.16-4.71-.008-.013-5.86-10.41-7.084-12.804-1.222-2.397.27-3.779 2.037-3.363.866.202 1.695 1.298 2.723 2.656.597.79 1.261 1.667 2.038 2.509V67.866l-.006-.001v-7.901a2.118 2.118 0 014.235 0v7.744l-.025.007v5.326h.632v-2.274c0-1.109.885-2.015 1.983-2.015h.213c1.095 0 1.981.906 1.981 2.015v2.274h.766v-2.274c0-1.109.89-2.015 1.982-2.015h.216c1.096 0 1.98.906 1.98 2.015v2.274h.766v-2.274c0-1.109.885-2.015 1.985-2.015h.21c1.097 0 1.984.906 1.984 2.017z" fill="#6C63FF"></path>
  </symbol>
  <symbol viewBox="0 0 150 150" id="game">
    <circle cx="75" cy="75" r="75" fill="#F4F9FF"></circle>
    <g clip-path="url(#clip0)" fill="#6C63FF">
      <path d="M85.706 63.856a19.87 19.87 0 01-.442-4.187c0-10.658 8.461-19.376 19.019-19.792l.011-.017H45.611l.011.017c10.558.416 19.02 9.134 19.02 19.792 0 1.424-.15 2.822-.443 4.187 4.695.886 8.259 5.016 8.259 9.965 0 .124-.005.246-.01.369h5.009c-.005-.123-.01-.245-.01-.37 0-4.948 3.564-9.078 8.26-9.964zM70.312 51.053h9.282v5.625h-9.282v-5.625zM52.959 77.739a19.689 19.689 0 01-8.127 1.739c-7.62 0-14.247-4.325-17.56-10.648v31.642c0 6.835 5.562 12.396 12.397 12.396 4.695 0 9.065-2.725 11.13-6.942l10.778-21.992c-3.886-.28-7.173-2.758-8.618-6.195zm52.113 1.739c-2.844 0-5.595-.597-8.127-1.74-1.434 3.41-4.68 5.876-8.526 6.189l10.78 21.999c2.067 4.217 6.436 6.942 11.132 6.942 6.835 0 12.396-5.561 12.396-12.396V68.646c-3.28 6.423-9.962 10.832-17.655 10.832z"></path>
      <path d="M52.404 71.662a10.179 10.179 0 015.738-7.084c.579-1.565.873-3.211.873-4.91 0-7.82-6.363-14.183-14.184-14.183-7.82 0-14.183 6.363-14.183 14.184 0 7.82 6.363 14.183 14.183 14.183 2.715 0 5.31-.755 7.573-2.19zM37.261 56.856h4.758v-4.758h5.625v4.758h4.758v5.625h-4.758v4.758H42.02v-4.758h-4.76v-5.625zM97.5 71.662a14.053 14.053 0 007.573 2.19c7.821 0 14.184-6.362 14.184-14.183s-6.363-14.184-14.184-14.184c-7.82 0-14.183 6.363-14.183 14.184 0 1.698.294 3.344.873 4.91a10.179 10.179 0 015.738 7.083zm14.062-14.094c1.577 0 2.745 1.29 2.813 2.813.068 1.52-1.341 2.813-2.813 2.813-1.576 0-2.744-1.289-2.812-2.813-.068-1.519 1.341-2.813 2.812-2.813zm-7.092-6.855c1.577 0 2.744 1.29 2.813 2.813.068 1.52-1.342 2.813-2.813 2.813-1.577 0-2.745-1.289-2.813-2.813-.068-1.519 1.341-2.813 2.813-2.813zm0 13.779c1.577 0 2.744 1.288 2.813 2.812.068 1.52-1.342 2.813-2.813 2.813-1.577 0-2.745-1.289-2.813-2.813-.068-1.519 1.341-2.812 2.813-2.812zm-7.093-1.298c-1.577 0-2.745-1.289-2.813-2.813-.068-1.519 1.342-2.813 2.813-2.813 1.577 0 2.744 1.29 2.813 2.813.068 1.52-1.342 2.813-2.813 2.813zm-35.063 6.109a4.523 4.523 0 00-4.518 4.517 4.523 4.523 0 004.518 4.518 4.523 4.523 0 004.517-4.517 4.523 4.523 0 00-4.517-4.518zm25.276 9.035a4.523 4.523 0 004.518-4.517 4.523 4.523 0 00-4.518-4.518 4.523 4.523 0 00-4.517 4.517 4.523 4.523 0 004.517 4.518z"></path>
    </g>
    <defs>
      <clipPath id="clip0">
        <path fill="#fff" transform="translate(27.273 28.636)" d="M0 0h95.454v95.454H0z"></path>
      </clipPath>
    </defs>
  </symbol>
  <symbol viewBox="0 0 32 32" id="faq">
    <circle cx="16" cy="16" r="16" fill="#F4F9FF"></circle>
    <path d="M14.76 18.996c.013-.775.1-1.387.263-1.836.163-.45.495-.947.997-1.494l1.279-1.318c.547-.619.82-1.283.82-1.993 0-.683-.179-1.217-.537-1.601-.358-.39-.879-.586-1.563-.586-.663 0-1.197.176-1.601.527-.404.352-.605.824-.605 1.416h-1.807c.013-1.054.387-1.904 1.123-2.549.742-.65 1.706-.976 2.89-.976 1.231 0 2.188.332 2.872.996.69.658 1.035 1.563 1.035 2.715 0 1.14-.528 2.262-1.582 3.369l-1.065 1.055c-.475.527-.713 1.285-.713 2.275H14.76zm-.078 3.096c0-.293.088-.537.263-.733.183-.201.45-.302.801-.302.352 0 .619.1.8.302.183.196.274.44.274.733s-.09.537-.273.732c-.182.189-.45.283-.8.283-.352 0-.62-.094-.802-.283a1.054 1.054 0 01-.263-.732z" fill="#6C63FF"></path>
  </symbol>
  <symbol viewBox="0 0 13 13" id="close-blog-category">
    <path fill="#fff" d="M2.816 9.066l6.25-6.25.6.598-6.25 6.25z"></path>
    <path fill="#fff" d="M9.063 9.686l-6.25-6.25.621-.62 6.25 6.25z"></path>
  </symbol>
  <symbol viewBox="0 0 25 39" id="blog-save">
    <path d="M12.005 27.692L1.977 36.746V1h21.398v35.746l-10.03-9.054a1 1 0 00-1.34 0z" stroke="#6C63FF" stroke-width="2" stroke-linejoin="round"></path>
  </symbol>
  <symbol viewBox="0 0 44 44" id="del-blog">
    <path fill="#353B43" d="M10.421 32.421l22-22 1.159 1.158-22 22z"></path>
    <path fill="#353B43" d="M32.421 33.579l-22-22 1.158-1.159 22 22z"></path>
  </symbol>
  <symbol viewBox="0 0 21 21" id="back-breadcrumbs">
    <path d="M10.664 1.666L2 10.331l8.665 8.666" stroke="#6C63FF" stroke-width="2" stroke-linecap="round"></path>
  </symbol>
  <symbol viewBox="0 0 25 29" id="upload-foto">
    <g clip-path="url(#clip0)">
      <path d="M19.991 12.132c-.332-2.057-1.24-3.91-2.567-5.24-1.327-1.332-2.992-2.059-4.71-2.059-2.862 0-5.347 1.982-6.585 4.882-1.455.192-2.8 1.034-3.779 2.363-.977 1.33-1.518 3.053-1.518 4.839 0 4 2.664 7.25 5.94 7.25h12.873c2.733 0 4.95-2.707 4.95-6.042 0-3.19-2.03-5.776-4.604-5.993zm-2.326 3.577l-4.951 6.041-4.951-6.041h2.97v-4.834h3.961v4.834h2.97z"></path>
    </g>
    <defs>
      <clipPath id="clip0">
        <path transform="translate(.832)" d="M0 0h23.764v29H0z"></path>
      </clipPath>
    </defs>
  </symbol>
  <symbol viewBox="0 0 48 48" id="custom-user">
    <path d="M38 4H10a4 4 0 00-4 4v26a4 4 0 004 4h8l6 6 6-6h8a4 4 0 004-4V8a4 4 0 00-4-4zm-14 6c3.454 0 6 2.544 6 6s-2.546 6-6 6c-3.452 0-6-2.544-6-6s2.548-6 6-6zm-9.646 22c1.116-3.446 4.992-6 9.646-6 4.654 0 8.532 2.554 9.646 6H14.354z" fill="#6C63FF"></path>
  </symbol>
  <symbol viewBox="0 0 22 22" id="ion_time">
    <path d="M11 2.063a8.938 8.938 0 100 17.875 8.938 8.938 0 000-17.875zm4.125 10.312H11a.687.687 0 01-.688-.688V5.5a.687.687 0 111.376 0V11h3.437a.687.687 0 110 1.375z" fill="#353B43"></path>
  </symbol>
  <symbol viewBox="0 0 44 44" id="quote">
    <path d="M37.234 32.465c3.46-3.755 3.11-8.577 3.1-8.632V9.167A1.833 1.833 0 0038.5 7.333h-11A3.67 3.67 0 0023.834 11v12.833a1.833 1.833 0 001.833 1.834h5.643a5.297 5.297 0 01-.786 2.559c-.932 1.468-2.686 2.471-5.218 2.977l-1.472.294v5.17h1.833c5.102 0 8.994-1.414 11.567-4.202zm-20.18 0c3.462-3.755 3.111-8.577 3.1-8.632V9.167a1.833 1.833 0 00-1.833-1.834h-11A3.67 3.67 0 003.654 11v12.833a1.833 1.833 0 001.834 1.834h5.643a5.297 5.297 0 01-.787 2.559c-.931 1.468-2.686 2.471-5.218 2.977l-1.472.294v5.17h1.834c5.102 0 8.994-1.414 11.566-4.202z" fill="#6C63FF"></path>
  </symbol>
  <symbol viewBox="0 0 46 46" id="svg-end-game">
    <path d="M23 .25C10.436.25.25 10.436.25 23S10.436 45.75 23 45.75 45.75 35.564 45.75 23 35.564.25 23 .25zM33.5 26.5H23a1.75 1.75 0 01-1.75-1.75V9a1.75 1.75 0 013.5 0v14h8.75a1.75 1.75 0 010 3.5z" fill="#6C63FF"></path>
  </symbol>
  <symbol viewBox="0 0 10 10" id="arrow-left">
    <path d="M4.902 8.804l-1.17-1.17-.781-.781-.78-.78-.78-.781L1 4.902l1.734-1.734L4.902 1" stroke="#6C63FF" stroke-linecap="round"></path>
  </symbol>
  <symbol viewBox="0 0 10 10" id="arrow-right">
    <path d="M4.902 8.804l1.17-1.17.78-.781.781-.78.78-.781.39-.39L7.07 3.168 4.902 1" stroke="#6C63FF" stroke-linecap="round"></path>
  </symbol>
  <symbol viewBox="0 0 25 24" id="bx_bx-search">
    <path d="M10.903 18a7.897 7.897 0 004.876-1.688l4.377 4.396 1.408-1.414-4.377-4.396A7.974 7.974 0 0018.869 10c0-4.411-3.574-8-7.966-8-4.393 0-7.966 3.589-7.966 8s3.573 8 7.966 8zm0-14c3.295 0 5.974 2.691 5.974 6s-2.68 6-5.974 6c-3.295 0-5.975-2.691-5.975-6s2.68-6 5.975-6z" fill="#6C63FF"></path>
  </symbol>
  <symbol viewBox="0 0 80 80" id="stop">
    <circle cx="40" cy="40" r="39" stroke="#6C63FF" stroke-width="2"></circle>
    <rect x="28" y="28" width="24" height="24" rx="1" fill="#6C63FF"></rect>
  </symbol>
  <symbol viewBox="0 0 80 80" id="play">
    <circle cx="40" cy="40" r="40" fill="#6C63FF"></circle>
    <path d="M52.127 39.244a1 1 0 010 1.512l-15.472 13.4A1 1 0 0135 53.4V26.6a1 1 0 011.655-.756l15.472 13.4z" fill="#fff"></path>
  </symbol>
  <symbol viewBox="0 0 20 20" id="settings">
    <path d="M2.215 12.192c.178.608.424 1.194.735 1.745l-.887 1.118a.918.918 0 00.07 1.217l1.527 1.527c.33.33.85.358 1.216.069l1.111-.88c.572.33 1.18.587 1.814.768l.166 1.43c.055.463.446.81.909.81h2.161a.916.916 0 00.909-.81l.159-1.38a8.17 8.17 0 001.944-.785l1.075.85a.918.918 0 001.216-.068l1.528-1.528c.33-.33.358-.85.069-1.216l-.837-1.06c.348-.602.62-1.242.8-1.912l1.29-.149a.916.916 0 00.81-.908V8.869a.916.916 0 00-.81-.909l-1.271-.148a8.025 8.025 0 00-.768-1.89l.782-.988a.918.918 0 00-.069-1.216L16.34 2.194a.914.914 0 00-1.216-.07l-.96.761a8.056 8.056 0 00-1.987-.833L12.033.811A.916.916 0 0011.124 0H8.963a.916.916 0 00-.909.81L7.91 2.053a8.027 8.027 0 00-2.038.862l-.996-.79a.918.918 0 00-1.216.07L2.132 3.72a.914.914 0 00-.069 1.217l.833 1.053a7.875 7.875 0 00-.753 1.908L.811 8.05A.916.916 0 000 8.959v2.161c0 .464.348.855.81.909l1.405.163zm7.83-5.846a3.578 3.578 0 013.573 3.573 3.578 3.578 0 01-3.573 3.572A3.578 3.578 0 016.472 9.92a3.578 3.578 0 013.573-3.573z"></path>
  </symbol>
  <symbol viewBox="0 0 20 20" id="credit-card">
    <path d="M16.001 2.852H1.161C.512 2.852 0 3.395 0 4.038v9.127a1.15 1.15 0 001.16 1.134h.601V6.856a2.2 2.2 0 012.212-2.191h13.178v-.627c0-.643-.503-1.186-1.15-1.186zm1.616 10.723a.83.83 0 00-1.17.103.519.519 0 01-.808 0 .831.831 0 00-.643-.305.828.828 0 00-.834.839c0 .46.378.834.839.834a.81.81 0 00.642-.3.514.514 0 01.4-.187.5.5 0 01.398.181c.036.041.067.078.109.109a.83.83 0 101.067-1.274z"></path>
    <path d="M18.819 5.7H3.973a1.164 1.164 0 00-1.176 1.156v.761H20v-.761c0-.648-.534-1.155-1.181-1.155zm1.176 2.953H2.797V10h17.198V8.653zM2.797 11.036v4.926c0 .653.523 1.181 1.176 1.186h14.84a1.192 1.192 0 001.182-1.186v-4.926H2.797zm15.846 4.217a1.874 1.874 0 01-2.6.502 1.854 1.854 0 01-1.047.321 1.874 1.874 0 010-3.745c.373 0 .735.109 1.046.321a1.867 1.867 0 012.098 0 1.875 1.875 0 01.503 2.6z"></path>
  </symbol>
  <symbol viewBox="0 0 24 24" id="bx_bx-search">
    <path d="M10 18a7.952 7.952 0 004.897-1.688l4.396 4.396 1.414-1.414-4.396-4.396A7.952 7.952 0 0018 10c0-4.411-3.589-8-8-8s-8 3.589-8 8 3.589 8 8 8zm0-14c3.309 0 6 2.691 6 6s-2.691 6-6 6-6-2.691-6-6 2.691-6 6-6z" fill="#6C63FF"></path>
  </symbol>
</svg>