<svg width="107" height="107" viewBox="0 0 107 107" fill="none" xmlns="http://www.w3.org/2000/svg">
<path d="M48.2536 61.642C55.6478 61.642 61.642 55.6478 61.642 48.2536C61.642 40.8594 55.6478 34.8652 48.2536 34.8652C40.8594 34.8652 34.8652 40.8594 34.8652 48.2536C34.8652 55.6478 40.8594 61.642 48.2536 61.642Z" fill="#6C63FF"/>
<path d="M88.4431 32.1519C88.3981 28.7753 87.766 25.4322 86.5751 22.2723C85.5423 19.6069 83.9649 17.1862 81.9436 15.1649C79.9223 13.1437 77.5017 11.5663 74.8363 10.5335C71.7169 9.36253 68.4215 8.72938 65.0903 8.66098C60.8014 8.46927 59.4416 8.41577 48.5544 8.41577C37.6671 8.41577 36.2717 8.41577 32.014 8.66098C28.6843 8.72988 25.3904 9.36303 22.2725 10.5335C19.6067 11.5655 17.1857 13.1427 15.1643 15.1641C13.1429 17.1854 11.5658 19.6065 10.5337 22.2723C9.36043 25.3892 8.72865 28.6839 8.66568 32.0137C8.47397 36.3071 8.41602 37.6669 8.41602 48.5542C8.41602 59.4414 8.41602 60.8324 8.66568 65.0946C8.73256 68.4294 9.36118 71.7197 10.5337 74.8449C11.5675 77.51 13.1458 79.93 15.1679 81.9505C17.1899 83.971 19.6112 85.5475 22.277 86.5793C25.3864 87.7973 28.6808 88.4758 32.0184 88.5855C36.3118 88.7772 37.6716 88.8352 48.5588 88.8352C59.4461 88.8352 60.8416 88.8352 65.0993 88.5855C68.4303 88.5199 71.726 87.8883 74.8452 86.7175C77.5099 85.6835 79.9299 84.1057 81.951 82.0846C83.9722 80.0635 85.55 77.6434 86.584 74.9787C87.7565 71.8579 88.3851 68.5676 88.452 65.2283C88.6437 60.9394 88.7017 59.5796 88.7017 48.6879C88.6928 37.8007 88.6928 36.4186 88.4431 32.1519ZM48.5276 69.1427C37.1411 69.1427 27.9168 59.9184 27.9168 48.5319C27.9168 37.1453 37.1411 27.921 48.5276 27.921C53.994 27.921 59.2364 30.0925 63.1017 33.9578C66.967 37.8231 69.1385 43.0655 69.1385 48.5319C69.1385 53.9982 66.967 59.2407 63.1017 63.1059C59.2364 66.9712 53.994 69.1427 48.5276 69.1427ZM69.9588 31.9647C67.2972 31.9647 65.1528 29.8158 65.1528 27.1586C65.1528 26.5278 65.277 25.9031 65.5184 25.3203C65.7598 24.7374 66.1137 24.2078 66.5598 23.7618C67.0059 23.3157 67.5354 22.9618 68.1183 22.7204C68.7011 22.479 69.3258 22.3548 69.9566 22.3548C70.5875 22.3548 71.2121 22.479 71.795 22.7204C72.3778 22.9618 72.9074 23.3157 73.3535 23.7618C73.7995 24.2078 74.1534 24.7374 74.3948 25.3203C74.6362 25.9031 74.7605 26.5278 74.7605 27.1586C74.7605 29.8158 72.6116 31.9647 69.9588 31.9647Z" fill="#6C63FF"/>
<g clip-path="url(#clip0)">
<path d="M97.1846 71.449L97.1859 71.452C97.8089 72.8997 98.1296 74.4449 98.1256 76.0323C98.1256 76.0337 98.1256 76.0351 98.1256 76.0365L95.6256 76.0294C95.6256 77.2023 95.3861 78.4245 94.9106 79.6678C94.5161 80.7069 93.942 81.7847 93.2129 82.873L97.1846 71.449ZM97.1846 71.449C96.584 70.0583 95.7181 68.798 94.6354 67.7386C93.5556 66.6801 92.2827 65.8388 90.8857 65.2603C89.4378 64.6588 87.8849 64.3508 86.3171 64.354C84.2403 64.3545 82.2073 64.8936 80.4132 65.9175C78.6183 64.8932 76.5843 64.354 74.5065 64.354C72.9318 64.354 71.3944 64.6567 69.9421 65.2597C68.5416 65.8397 67.2768 66.6756 66.1935 67.7362C65.1078 68.7959 64.2405 70.0583 63.6406 71.4518L63.6405 71.452C63.017 72.901 62.6973 74.4453 62.6973 76.0294C62.6973 77.5446 63.0067 79.0692 63.5772 80.5608L63.5777 80.5621C64.0531 81.8031 64.7172 83.0467 65.533 84.2644L65.5338 84.2657C66.8252 86.1909 68.555 88.1335 70.6301 90.0493L97.1846 71.449Z" fill="#6C63FF" stroke="white" stroke-width="5"/>
</g>
<defs>
<clipPath id="clip0">
<rect width="45.6854" height="40.8764" fill="white" transform="translate(52.7617 57.6423)"/>
</clipPath>
</defs>
</svg>
