<svg width="117" height="117" viewBox="0 0 117 117" fill="none" xmlns="http://www.w3.org/2000/svg">
<path d="M38.9991 52.4549H36.1716C32.3131 52.3155 28.4671 52.9705 24.8722 54.3794C21.2774 55.7882 18.0104 57.9209 15.2741 60.6449L14.4941 61.5549V88.4649H27.7541V73.1899L29.5416 71.1749L30.3541 70.2324C34.5854 65.8855 39.8532 62.6868 45.6616 60.9374C42.7535 58.7246 40.46 55.8045 38.9991 52.4549Z" fill="#6C63FF"/>
<path d="M101.855 60.5475C99.1187 57.8234 95.8518 55.6908 92.257 54.2819C88.6621 52.8731 84.8161 52.218 80.9575 52.3575C79.7741 52.3609 78.5917 52.4259 77.415 52.5525C75.9268 55.6949 73.6959 58.4278 70.915 60.515C77.116 62.2305 82.7333 65.6009 87.165 70.265L87.9775 71.175L89.7325 73.19V88.4975H102.538V61.4575L101.855 60.5475Z" fill="#6C63FF"/>
<path d="M36.0746 46.1176H37.0821C36.614 42.0981 37.3192 38.0291 39.1128 34.4016C40.9063 30.7742 43.7115 27.7434 47.1896 25.6751C45.9288 23.749 44.1894 22.1833 42.1417 21.1314C40.094 20.0795 37.8083 19.5775 35.5082 19.6744C33.2082 19.7713 30.9728 20.4639 29.0208 21.6844C27.0689 22.9048 25.4674 24.6112 24.3731 26.6366C23.2789 28.662 22.7294 30.9368 22.7784 33.2383C22.8275 35.5399 23.4734 37.7892 24.653 39.7661C25.8325 41.743 27.5053 43.3797 29.5075 44.5159C31.5096 45.652 33.7725 46.2488 36.0746 46.2476V46.1176Z" fill="#6C63FF"/>
<path d="M79.3973 43.6799C79.4368 44.4269 79.4368 45.1755 79.3973 45.9225C80.021 46.0213 80.6509 46.0756 81.2823 46.085H81.8998C84.1918 45.9627 86.413 45.2492 88.3473 44.0137C90.2816 42.7782 91.8631 41.0629 92.9377 39.0348C94.0123 37.0067 94.5434 34.7349 94.4794 32.4406C94.4154 30.1463 93.7584 27.9076 92.5724 25.9426C91.3864 23.9776 89.7118 22.3531 87.7116 21.2274C85.7114 20.1017 83.4538 19.5131 81.1586 19.5188C78.8634 19.5246 76.6088 20.1246 74.6144 21.2604C72.6199 22.3961 70.9535 24.029 69.7773 25.9999C72.7189 27.9205 75.1376 30.5412 76.8166 33.6269C78.4957 36.7127 79.3824 40.167 79.3973 43.6799Z" fill="#6C63FF"/>
<path d="M58.0783 58.2401C66.1016 58.2401 72.6058 51.7359 72.6058 43.7126C72.6058 35.6892 66.1016 29.1851 58.0783 29.1851C50.055 29.1851 43.5508 35.6892 43.5508 43.7126C43.5508 51.7359 50.055 58.2401 58.0783 58.2401Z" fill="#6C63FF"/>
<path d="M58.8575 65.9749C54.6131 65.8036 50.378 66.4926 46.4069 68.0006C42.4358 69.5087 38.8108 71.8045 35.75 74.7499L34.9375 75.6599V96.2324C34.9502 96.9025 35.0948 97.5636 35.363 98.1778C35.6312 98.792 36.0178 99.3474 36.5007 99.8122C36.9836 100.277 37.5533 100.642 38.1773 100.887C38.8013 101.131 39.4674 101.25 40.1375 101.237H77.48C78.1501 101.25 78.8162 101.131 79.4402 100.887C80.0642 100.642 80.6339 100.277 81.1168 99.8122C81.5997 99.3474 81.9863 98.792 82.2545 98.1778C82.5227 97.5636 82.6673 96.9025 82.68 96.2324V75.7249L81.9 74.7499C78.8591 71.7954 75.2467 69.4931 71.2844 67.9842C67.3221 66.4753 63.0934 65.7916 58.8575 65.9749Z" fill="#6C63FF"/>
</svg>
