<svg width="87" height="88" viewBox="0 0 87 88" fill="none" xmlns="http://www.w3.org/2000/svg">
<path d="M47.3812 24.1586C45.2233 26.3366 41.726 26.3366 39.5681 24.1586C37.4109 21.9807 37.4109 18.4492 39.5681 16.2712C41.726 14.0932 45.2233 14.0932 47.3812 16.2712C49.5384 18.4492 49.5384 21.9807 47.3812 24.1586Z" fill="#6C63FF"/>
<path d="M54.9287 32.6094C54.2557 32.6094 53.5826 32.3496 53.0702 31.8293C52.0454 30.7913 52.0474 29.1095 53.0735 28.0735C55.1531 25.9741 56.2981 23.1832 56.2981 20.215C56.2981 17.2468 55.1531 14.4558 53.0735 12.3564C52.0474 11.3197 52.0454 9.6386 53.0702 8.59996C54.0944 7.562 55.7571 7.55998 56.7833 8.5966C59.8571 11.6998 61.5497 15.8254 61.5497 20.215C61.5497 24.6038 59.8571 28.7302 56.7833 31.8333C56.2708 32.3509 55.5998 32.6094 54.9287 32.6094Z" fill="#6C63FF"/>
<path d="M60.8682 40.4289C60.1951 40.4289 59.5221 40.1691 59.0097 39.6494C57.9848 38.6108 57.9868 36.9296 59.013 35.893C63.1615 31.7049 65.4468 26.1371 65.4468 20.2148C65.4468 14.2925 63.1615 8.72466 59.013 4.53655C57.9868 3.49992 57.9848 1.81877 59.0097 0.780137C60.0345 -0.257826 61.6966 -0.259841 62.7227 0.77678C67.8655 5.96861 70.6984 12.8718 70.6978 20.2148C70.6978 27.5577 67.8655 34.4616 62.7227 39.6534C62.2103 40.1704 61.5392 40.4289 60.8682 40.4289Z" fill="#6C63FF"/>
<path d="M32.0084 32.6094C31.3373 32.6094 30.6662 32.3509 30.1532 31.8333C27.0793 28.7302 25.3867 24.6038 25.3867 20.215C25.3867 15.8254 27.0793 11.6998 30.1532 8.59661C31.1793 7.55999 32.842 7.56133 33.8662 8.59997C34.8911 9.63793 34.8891 11.3198 33.8629 12.3564C31.7834 14.4558 30.6384 17.2468 30.6384 20.215C30.6384 23.1832 31.7834 25.9741 33.8629 28.0735C34.8891 29.1095 34.8911 30.7913 33.8662 31.8293C33.3538 32.3489 32.6808 32.6094 32.0084 32.6094Z" fill="#6C63FF"/>
<path d="M26.0695 40.429C25.3978 40.429 24.7267 40.1705 24.2143 39.6529C19.0715 34.461 16.2393 27.5578 16.2393 20.2149C16.2393 12.8712 19.0715 5.96803 24.2143 0.776201C25.2405 -0.259749 26.9032 -0.258406 27.9274 0.780229C28.9522 1.81819 28.9502 3.49935 27.924 4.53597C23.7756 8.72408 21.4902 14.2919 21.4902 20.2142C21.4902 26.1365 23.7756 31.705 27.924 35.8931C28.9502 36.9297 28.9522 38.6109 27.9274 39.6495C27.4149 40.1691 26.7419 40.429 26.0695 40.429Z" fill="#6C63FF"/>
<path d="M78.0756 45.0205H8.86115C5.46869 45.0205 2.71875 47.8021 2.71875 51.2328V81.7869C2.71875 85.2183 5.46869 87.9999 8.86115 87.9999H78.0749C81.4674 87.9999 84.2173 85.2183 84.2173 81.7869V51.2328C84.2173 47.8021 81.4674 45.0205 78.0756 45.0205ZM22.9175 80.0285H13.2433C11.7936 80.0285 10.6181 78.8395 10.6181 77.3725V55.6479C10.6181 54.1816 11.7936 52.9919 13.2433 52.9919C14.6936 52.9919 15.8691 54.1809 15.8691 55.6479V74.7165H22.9175C24.3678 74.7165 25.5433 75.9056 25.5433 77.3725C25.5433 78.8395 24.3678 80.0285 22.9175 80.0285ZM33.6783 77.3725C33.6783 78.8395 32.5028 80.0285 31.0525 80.0285C29.6022 80.0285 28.4267 78.8395 28.4267 77.3725V55.6479C28.4267 54.1816 29.6022 52.9919 31.0525 52.9919C32.5028 52.9919 33.6783 54.1809 33.6783 55.6479V77.3725ZM55.7708 56.4159L49.2865 78.1399C49.2859 78.1419 49.2852 78.144 49.2845 78.146C48.5803 80.5771 44.99 80.5173 44.2612 78.146C44.2606 78.144 44.2599 78.1419 44.2592 78.1399L37.775 56.4159C37.3562 55.0114 38.1414 53.5296 39.53 53.1053C40.9172 52.6817 42.3835 53.4759 42.8023 54.8805L46.7729 68.1826L50.7435 54.8805C51.163 53.4759 52.6279 52.681 54.0165 53.1053C55.4044 53.5296 56.1903 55.0114 55.7708 56.4159ZM71.9246 62.4866C73.3749 62.4866 74.5504 63.6756 74.5504 65.1426C74.5504 66.6089 73.3749 67.7986 71.9246 67.7986H64.4733V74.7165H73.3391C74.7894 74.7165 75.9649 75.9056 75.9649 77.3725C75.9649 78.8395 74.7894 80.0285 73.3391 80.0285H61.8474C60.3971 80.0285 59.2216 78.8395 59.2216 77.3725V55.6479C59.2216 54.1816 60.3971 52.9919 61.8474 52.9919H73.6928C75.1425 52.9919 76.3186 54.1809 76.3186 55.6479C76.3186 57.1148 75.1425 58.3039 73.6928 58.3039H64.4726V62.4866H71.9246Z" fill="#6C63FF"/>
</svg>
