<svg width="69" height="31" viewBox="0 0 69 31" fill="none" xmlns="http://www.w3.org/2000/svg">
<path d="M22.2734 13.7832C22.2734 16.1738 21.8867 18.2539 21.1133 20.0234C20.3398 21.7812 19.2676 23.1934 17.8965 24.2598L22.1504 27.5996L18.793 30.5703L13.3438 26.1934C12.7227 26.2988 12.0781 26.3516 11.4102 26.3516C9.28906 26.3516 7.39648 25.8418 5.73242 24.8223C4.06836 23.8027 2.7793 22.3496 1.86523 20.4629C0.951172 18.5645 0.488281 16.3848 0.476562 13.9238V12.6582C0.476562 10.1387 0.927734 7.92383 1.83008 6.01367C2.74414 4.0918 4.02734 2.62109 5.67969 1.60156C7.34375 0.570312 9.24219 0.0546875 11.375 0.0546875C13.5078 0.0546875 15.4004 0.570312 17.0527 1.60156C18.7168 2.62109 20 4.0918 20.9023 6.01367C21.8164 7.92383 22.2734 10.1328 22.2734 12.6406V13.7832ZM16.9297 12.623C16.9297 9.93945 16.4492 7.90039 15.4883 6.50586C14.5273 5.11133 13.1562 4.41406 11.375 4.41406C9.60547 4.41406 8.24023 5.10547 7.2793 6.48828C6.31836 7.85938 5.83203 9.875 5.82031 12.5352V13.7832C5.82031 16.3965 6.30078 18.4238 7.26172 19.8652C8.22266 21.3066 9.60547 22.0273 11.4102 22.0273C13.1797 22.0273 14.5391 21.3359 15.4883 19.9531C16.4375 18.5586 16.918 16.5312 16.9297 13.8711V12.623ZM47.1641 13.7832C47.1641 16.3027 46.7188 18.5117 45.8281 20.4102C44.9375 22.3086 43.6602 23.7734 41.9961 24.8047C40.3438 25.8359 38.4453 26.3516 36.3008 26.3516C34.1797 26.3516 32.2871 25.8418 30.623 24.8223C28.959 23.8027 27.6699 22.3496 26.7559 20.4629C25.8418 18.5645 25.3789 16.3848 25.3672 13.9238V12.6582C25.3672 10.1387 25.8184 7.92383 26.7207 6.01367C27.6348 4.0918 28.918 2.62109 30.5703 1.60156C32.2344 0.570312 34.1328 0.0546875 36.2656 0.0546875C38.3984 0.0546875 40.291 0.570312 41.9434 1.60156C43.6074 2.62109 44.8906 4.0918 45.793 6.01367C46.707 7.92383 47.1641 10.1328 47.1641 12.6406V13.7832ZM41.8203 12.623C41.8203 9.93945 41.3398 7.90039 40.3789 6.50586C39.418 5.11133 38.0469 4.41406 36.2656 4.41406C34.4961 4.41406 33.1309 5.10547 32.1699 6.48828C31.209 7.85938 30.7227 9.875 30.7109 12.5352V13.7832C30.7109 16.3965 31.1914 18.4238 32.1523 19.8652C33.1133 21.3066 34.4961 22.0273 36.3008 22.0273C38.0703 22.0273 39.4297 21.3359 40.3789 19.9531C41.3281 18.5586 41.8086 16.5312 41.8203 13.8711V12.623ZM68.75 4.67773H60.9102V26H55.6367V4.67773H47.9023V0.40625H68.75V4.67773Z" fill="#6C63FF"/>
</svg>
