<svg width="96" height="116" viewBox="0 0 96 116" fill="none" xmlns="http://www.w3.org/2000/svg">
<path fill-rule="evenodd" clip-rule="evenodd" d="M5.09032 9.79478V67.093H40.242L44.5593 76.6752H5.86404C3.06222 76.6752 0.770508 74.3467 0.770508 71.502V5.1783C0.770508 2.331 3.06222 0 5.86404 0H39.4683C42.2701 0 44.5593 2.331 44.5593 5.1783V76.6752L40.242 67.093V9.79478H5.09032ZM28.0424 3.73421H17.2899C16.9532 3.73421 16.8871 4.38996 16.8871 4.74013C16.8871 5.08518 16.9507 5.77663 17.2899 5.77663H28.0424C28.3816 5.77663 28.5377 5.08518 28.5377 4.74013C28.5377 4.38996 28.3816 3.73421 28.0424 3.73421Z" fill="#6C63FF"/>
<path d="M61.26 65.2222L61.4633 64.6551L61.4666 64.6459L61.47 64.6366C61.6092 64.2601 61.8392 63.9285 62.1343 63.668C62.4292 63.4077 62.7806 63.2257 63.156 63.1331C63.5312 63.0405 63.9233 63.0388 64.2994 63.1283C64.6755 63.2178 65.0283 63.3968 65.3252 63.6544L65.3356 63.6634L65.3459 63.6725L66.841 65.0062C66.8414 65.0065 66.8418 65.0068 66.8421 65.0072C68.8603 66.8038 70.4791 68.9893 71.594 71.4287C72.7365 73.9241 73.3125 76.5768 73.3128 79.3025M61.26 65.2222L71.3128 79.3051M61.26 65.2222C60.7492 63.3451 59.9407 61.4184 58.8669 59.46C57.0194 56.078 54.4315 53.4099 51.1899 51.5503L51.1877 51.549L49.0689 50.3371C49.0677 50.3364 49.0664 50.3356 49.0651 50.3349C47.4868 49.4294 45.361 50.5582 45.4557 52.5303C45.4557 52.5312 45.4557 52.5321 45.4558 52.5329L45.5687 54.9291C45.5687 54.9291 45.5688 54.9292 45.5688 54.9293C45.6363 56.3663 45.4586 57.5273 45.1184 58.4129L45.118 58.4138C44.634 59.6758 43.9373 60.8523 43.0401 61.9145C42.4151 62.6533 41.7059 63.3228 40.9253 63.9098C38.5178 65.7096 36.5553 68.019 35.1889 70.6683L35.1888 70.6683L35.1847 70.6763C33.819 73.3538 33.1062 76.3048 33.1045 79.299V79.3001C33.1045 81.9358 33.6398 84.4947 34.698 86.9042L34.6988 86.9062C35.7188 89.2223 37.1893 91.3207 39.0261 93.0868L39.0271 93.0878C40.8751 94.8621 43.0233 96.262 45.4152 97.2332M61.26 65.2222L46.1676 95.3801M73.3128 79.3025C73.3128 79.3034 73.3128 79.3042 73.3128 79.3051H71.3128M73.3128 79.3025C73.3128 79.302 73.3128 79.3014 73.3128 79.3008L71.3128 79.3051M73.3128 79.3025C73.3182 81.919 72.7753 84.5076 71.719 86.9101M71.3128 79.3051C71.3178 81.6423 70.8331 83.956 69.8882 86.1051M71.719 86.9101C71.7192 86.9096 71.7194 86.9091 71.7196 86.9086L69.8882 86.1051M71.719 86.9101C70.7025 89.2265 69.2445 91.3118 67.3924 93.0907M71.719 86.9101L69.8882 86.1051M69.8882 86.1051L67.3924 93.0907M67.3924 93.0907C67.3934 93.0897 67.3944 93.0887 67.3954 93.0877L66.0053 91.6504L67.3902 93.0927C67.3909 93.0921 67.3916 93.0914 67.3924 93.0907ZM67.3924 93.0907C65.5561 94.8659 63.3849 96.2738 61.0012 97.2385M67.3924 93.0907L60.2497 95.3851M61.0012 97.2385L60.2497 95.3851M61.0012 97.2385C61.0008 97.2387 61.0004 97.2389 60.9999 97.239L60.2497 95.3851M61.0012 97.2385C58.5279 98.2413 55.9066 98.7501 53.2087 98.7501C50.5116 98.7501 47.8898 98.2416 45.4152 97.2332M60.2497 95.3851C58.0176 96.2901 55.6517 96.7501 53.2087 96.7501C50.7656 96.7501 48.3997 96.2901 46.1676 95.3801M45.4152 97.2332L46.1676 95.3801M45.4152 97.2332C45.4143 97.2328 45.4134 97.2324 45.4126 97.2321L46.1676 95.3801M47.0722 53.8031L47.0776 53.8061C47.0758 53.8051 47.074 53.8041 47.0722 53.8031Z" fill="#6C63FF" stroke="white" stroke-width="4"/>
</svg>
