<svg width="88" height="88" viewBox="0 0 88 88" fill="none" xmlns="http://www.w3.org/2000/svg">
<g clip-path="url(#clip0)">
<path d="M56.5078 72.0847H81.0952L78.8537 18.2925H66.9454V28.2848H61.7892V18.2925H44.3523V28.2848H39.1962V18.2925H27.288L26.6318 34.0211H56.5078V72.0847Z" fill="#6C63FF"/>
<path d="M51.3515 88V39.1772H40.9339V48.5793C40.9339 55.272 35.489 60.7169 28.7963 60.7169C22.1036 60.7169 16.6585 55.272 16.6585 48.5793V39.1772H6.24121V82.9917C6.24121 85.7528 8.47916 87.9912 11.2402 87.9917L51.3515 88Z" fill="#6C63FF"/>
<path d="M28.7961 55.561C32.6456 55.561 35.7775 52.4291 35.7775 48.5796V39.1775H21.8145V48.5796C21.8146 52.429 24.9465 55.561 28.7961 55.561Z" fill="#6C63FF"/>
<path d="M56.5088 87.9999H76.5467C79.3898 87.9999 81.6607 85.6324 81.5424 82.7918L81.3111 77.2407H56.5088V87.9999Z" fill="#6C63FF"/>
<path d="M44.3524 13.8745C44.3524 9.06726 48.2636 5.15615 53.0708 5.15615C57.8781 5.15615 61.7892 9.06709 61.7892 13.8745V18.2837H66.9453V13.8745C66.9455 6.22399 60.7213 0 53.0708 0C45.4203 0 39.1963 6.22399 39.1963 13.8745V18.2837H44.3524V13.8745Z" fill="#6C63FF"/>
</g>
<defs>
<clipPath id="clip0">
<rect width="88" height="88" fill="white"/>
</clipPath>
</defs>
</svg>
